<?xml version="1.0" encoding="UTF-8"?>
<svg xmlns="http://www.w3.org/2000/svg" xmlns:xlink="http://www.w3.org/1999/xlink" viewBox="0 0 24 24" width="24px" height="24px">
<g id="surface112362700">
<path style=" stroke:none;fill-rule:nonzero;fill:rgb(0%,0%,0%);fill-opacity:1;" d="M 0 12 C 0 5.371094 5.371094 0 12 0 C 18.628906 0 24 5.371094 24 12 C 24 18.628906 18.628906 24 12 24 C 5.371094 24 0 18.628906 0 12 Z M 12 22.558594 C 17.832031 22.558594 22.558594 17.832031 22.558594 12 C 22.558594 6.167969 17.832031 1.441406 12 1.441406 C 6.167969 1.441406 1.441406 6.167969 1.441406 12 C 1.441406 17.832031 6.167969 22.558594 12 22.558594 Z M 12 22.558594 "/>
<path style=" stroke:none;fill-rule:nonzero;fill:rgb(0%,0%,0%);fill-opacity:1;" d="M 6.164062 5.035156 L 5.035156 6.164062 L 10.867188 12 L 5.035156 17.835938 L 6.164062 18.964844 L 12 13.132812 L 17.835938 18.964844 L 18.964844 17.835938 L 13.132812 12 L 18.964844 6.164062 L 17.835938 5.035156 L 12 10.867188 Z M 6.164062 5.035156 "/>
</g>
</svg>
